<mxfile host="app.diagrams.net" agent="Mozilla/5.0 (Macintosh; Intel Mac OS X 10_15_7) AppleWebKit/537.36 (KHTML, like Gecko) Chrome/127.0.0.0 Safari/537.36" version="24.7.7">
  <diagram name="Page-1" id="_zHxs8BaOQDz38C2IA0B">
    <mxGraphModel dx="1735" dy="1164" grid="1" gridSize="10" guides="1" tooltips="1" connect="1" arrows="1" fold="1" page="1" pageScale="1" pageWidth="850" pageHeight="1100" math="0" shadow="0">
      <root>
        <mxCell id="0" />
        <mxCell id="1" parent="0" />
        <mxCell id="1b-rbjV8sATuq4G54EdM-11" value="&lt;font style=&quot;font-size: 16px;&quot;&gt;General Plan&lt;/font&gt;" style="swimlane;fontStyle=0;childLayout=stackLayout;horizontal=1;startSize=30;horizontalStack=0;resizeParent=1;resizeParentMax=0;resizeLast=0;collapsible=1;marginBottom=0;whiteSpace=wrap;html=1;" parent="1" vertex="1">
          <mxGeometry x="35.28" y="120" width="250" height="250" as="geometry" />
        </mxCell>
        <mxCell id="1b-rbjV8sATuq4G54EdM-12" value="General Reqs" style="text;strokeColor=none;fillColor=none;align=left;verticalAlign=middle;spacingLeft=4;spacingRight=4;overflow=hidden;points=[[0,0.5],[1,0.5]];portConstraint=eastwest;rotatable=0;whiteSpace=wrap;html=1;fontSize=14;" parent="1b-rbjV8sATuq4G54EdM-11" vertex="1">
          <mxGeometry y="30" width="250" height="30" as="geometry" />
        </mxCell>
        <mxCell id="1b-rbjV8sATuq4G54EdM-13" value="Function Reqs" style="text;strokeColor=none;fillColor=none;align=left;verticalAlign=middle;spacingLeft=4;spacingRight=4;overflow=hidden;points=[[0,0.5],[1,0.5]];portConstraint=eastwest;rotatable=0;whiteSpace=wrap;html=1;fontSize=14;" parent="1b-rbjV8sATuq4G54EdM-11" vertex="1">
          <mxGeometry y="60" width="250" height="30" as="geometry" />
        </mxCell>
        <mxCell id="1b-rbjV8sATuq4G54EdM-14" value="&lt;font style=&quot;font-size: 14px;&quot;&gt;Application architecture and components&lt;/font&gt;" style="text;strokeColor=none;fillColor=none;align=left;verticalAlign=middle;spacingLeft=4;spacingRight=4;overflow=hidden;points=[[0,0.5],[1,0.5]];portConstraint=eastwest;rotatable=0;whiteSpace=wrap;html=1;" parent="1b-rbjV8sATuq4G54EdM-11" vertex="1">
          <mxGeometry y="90" width="250" height="40" as="geometry" />
        </mxCell>
        <mxCell id="1b-rbjV8sATuq4G54EdM-20" value="Data Entities" style="text;strokeColor=none;fillColor=none;align=left;verticalAlign=middle;spacingLeft=4;spacingRight=4;overflow=hidden;points=[[0,0.5],[1,0.5]];portConstraint=eastwest;rotatable=0;whiteSpace=wrap;html=1;fontSize=14;" parent="1b-rbjV8sATuq4G54EdM-11" vertex="1">
          <mxGeometry y="130" width="250" height="30" as="geometry" />
        </mxCell>
        <mxCell id="1b-rbjV8sATuq4G54EdM-21" value="Data Store on Frontend" style="text;strokeColor=none;fillColor=none;align=left;verticalAlign=middle;spacingLeft=4;spacingRight=4;overflow=hidden;points=[[0,0.5],[1,0.5]];portConstraint=eastwest;rotatable=0;whiteSpace=wrap;html=1;fontSize=14;" parent="1b-rbjV8sATuq4G54EdM-11" vertex="1">
          <mxGeometry y="160" width="250" height="30" as="geometry" />
        </mxCell>
        <mxCell id="1b-rbjV8sATuq4G54EdM-22" value="Optimization" style="text;strokeColor=none;fillColor=none;align=left;verticalAlign=middle;spacingLeft=4;spacingRight=4;overflow=hidden;points=[[0,0.5],[1,0.5]];portConstraint=eastwest;rotatable=0;whiteSpace=wrap;html=1;fontSize=14;" parent="1b-rbjV8sATuq4G54EdM-11" vertex="1">
          <mxGeometry y="190" width="250" height="30" as="geometry" />
        </mxCell>
        <mxCell id="1b-rbjV8sATuq4G54EdM-23" value="Accessibility" style="text;strokeColor=none;fillColor=none;align=left;verticalAlign=middle;spacingLeft=4;spacingRight=4;overflow=hidden;points=[[0,0.5],[1,0.5]];portConstraint=eastwest;rotatable=0;whiteSpace=wrap;html=1;fontSize=14;" parent="1b-rbjV8sATuq4G54EdM-11" vertex="1">
          <mxGeometry y="220" width="250" height="30" as="geometry" />
        </mxCell>
        <mxCell id="1b-rbjV8sATuq4G54EdM-90" value="&lt;font style=&quot;font-size: 16px;&quot;&gt;General Reqs&lt;/font&gt;" style="swimlane;fontStyle=0;childLayout=stackLayout;horizontal=1;startSize=30;horizontalStack=0;resizeParent=1;resizeParentMax=0;resizeLast=0;collapsible=1;marginBottom=0;whiteSpace=wrap;html=1;" parent="1" vertex="1">
          <mxGeometry x="320" y="120" width="220" height="200" as="geometry" />
        </mxCell>
        <mxCell id="1b-rbjV8sATuq4G54EdM-91" value="&lt;ol style=&quot;line-height: 160%; font-size: 14px; padding-top: 5px; padding-right: 5px; padding-bottom: 5px; margin-right: 10px;&quot;&gt;&lt;li style=&quot;font-size: 14px;&quot;&gt;Search movie by Title&lt;/li&gt;&lt;li style=&quot;font-size: 14px;&quot;&gt;HomePage shows some movie recommendations.&lt;/li&gt;&lt;li style=&quot;font-size: 14px;&quot;&gt;Movie card with title, image, and year&lt;/li&gt;&lt;/ol&gt;" style="text;strokeColor=none;fillColor=none;align=left;verticalAlign=middle;spacingLeft=0;spacingRight=4;overflow=hidden;points=[[0,0.5],[1,0.5]];portConstraint=eastwest;rotatable=0;whiteSpace=wrap;html=1;spacing=2;fontSize=14;spacingTop=0;spacingBottom=4;" parent="1b-rbjV8sATuq4G54EdM-90" vertex="1">
          <mxGeometry y="30" width="220" height="170" as="geometry" />
        </mxCell>
        <mxCell id="1b-rbjV8sATuq4G54EdM-99" value="&lt;font style=&quot;font-size: 16px;&quot;&gt;Functional Reqs&lt;/font&gt;" style="swimlane;fontStyle=0;childLayout=stackLayout;horizontal=1;startSize=30;horizontalStack=0;resizeParent=1;resizeParentMax=0;resizeLast=0;collapsible=1;marginBottom=0;whiteSpace=wrap;html=1;" parent="1" vertex="1">
          <mxGeometry x="600.28" y="120" width="204.44" height="180" as="geometry" />
        </mxCell>
        <mxCell id="1b-rbjV8sATuq4G54EdM-100" value="&lt;ol&gt;&lt;li&gt;&lt;span style=&quot;background-color: initial;&quot;&gt;Support for web and mobile platform.&lt;/span&gt;&lt;/li&gt;&lt;li&gt;&lt;span style=&quot;background-color: initial;&quot;&gt;Advance filtering on the basis of genre, release date, and rating.&lt;/span&gt;&lt;/li&gt;&lt;li&gt;Save movie in a favourites section.&lt;/li&gt;&lt;/ol&gt;" style="text;strokeColor=none;fillColor=none;align=left;verticalAlign=middle;spacingLeft=0;spacingRight=4;overflow=hidden;points=[[0,0.5],[1,0.5]];portConstraint=eastwest;rotatable=0;whiteSpace=wrap;html=1;spacing=2;fontSize=14;spacingTop=0;spacingBottom=4;" parent="1b-rbjV8sATuq4G54EdM-99" vertex="1">
          <mxGeometry y="30" width="204.44" height="150" as="geometry" />
        </mxCell>
        <mxCell id="1b-rbjV8sATuq4G54EdM-101" value="&lt;font style=&quot;font-size: 22px;&quot;&gt;MyBinge Movie Application&lt;/font&gt;" style="rounded=0;whiteSpace=wrap;html=1;" parent="1" vertex="1">
          <mxGeometry x="280" y="20" width="320.28" height="60" as="geometry" />
        </mxCell>
        <mxCell id="CDZBrPM5I4XblVGl2qVO-4" style="edgeStyle=orthogonalEdgeStyle;rounded=0;orthogonalLoop=1;jettySize=auto;html=1;exitX=1;exitY=0.5;exitDx=0;exitDy=0;" edge="1" parent="1" source="1b-rbjV8sATuq4G54EdM-104">
          <mxGeometry relative="1" as="geometry">
            <mxPoint x="900" y="599.9411764705883" as="targetPoint" />
          </mxGeometry>
        </mxCell>
        <mxCell id="1b-rbjV8sATuq4G54EdM-104" value="" style="swimlane;startSize=0;" parent="1" vertex="1">
          <mxGeometry x="240" y="440" width="450" height="320" as="geometry" />
        </mxCell>
        <mxCell id="1b-rbjV8sATuq4G54EdM-105" value="&lt;font style=&quot;font-size: 18px;&quot;&gt;App Overview&lt;/font&gt;" style="text;html=1;align=center;verticalAlign=middle;whiteSpace=wrap;rounded=0;fontSize=17;" parent="1b-rbjV8sATuq4G54EdM-104" vertex="1">
          <mxGeometry x="170" y="20" width="120" height="30" as="geometry" />
        </mxCell>
        <mxCell id="1b-rbjV8sATuq4G54EdM-122" style="edgeStyle=orthogonalEdgeStyle;rounded=0;orthogonalLoop=1;jettySize=auto;html=1;exitX=0.5;exitY=1;exitDx=0;exitDy=0;entryX=0.5;entryY=0;entryDx=0;entryDy=0;" parent="1b-rbjV8sATuq4G54EdM-104" source="1b-rbjV8sATuq4G54EdM-106" target="1b-rbjV8sATuq4G54EdM-119" edge="1">
          <mxGeometry relative="1" as="geometry" />
        </mxCell>
        <mxCell id="1b-rbjV8sATuq4G54EdM-106" value="&lt;font style=&quot;font-size: 14px;&quot;&gt;HomePage&lt;/font&gt;" style="whiteSpace=wrap;html=1;aspect=fixed;" parent="1b-rbjV8sATuq4G54EdM-104" vertex="1">
          <mxGeometry x="50" y="80" width="80" height="80" as="geometry" />
        </mxCell>
        <mxCell id="1b-rbjV8sATuq4G54EdM-113" value="&lt;font style=&quot;font-size: 14px;&quot;&gt;Search&lt;/font&gt;" style="whiteSpace=wrap;html=1;aspect=fixed;" parent="1b-rbjV8sATuq4G54EdM-104" vertex="1">
          <mxGeometry x="330" y="80" width="80" height="80" as="geometry" />
        </mxCell>
        <mxCell id="1b-rbjV8sATuq4G54EdM-112" value="&lt;font style=&quot;font-size: 14px;&quot;&gt;Favourites&lt;/font&gt;" style="whiteSpace=wrap;html=1;aspect=fixed;" parent="1b-rbjV8sATuq4G54EdM-104" vertex="1">
          <mxGeometry x="190.00000000000003" y="80" width="80" height="80" as="geometry" />
        </mxCell>
        <mxCell id="1b-rbjV8sATuq4G54EdM-119" value="&lt;font style=&quot;font-size: 14px;&quot;&gt;Filtering&lt;/font&gt;" style="ellipse;whiteSpace=wrap;html=1;aspect=fixed;" parent="1b-rbjV8sATuq4G54EdM-104" vertex="1">
          <mxGeometry x="50" y="210" width="80" height="80" as="geometry" />
        </mxCell>
        <mxCell id="1b-rbjV8sATuq4G54EdM-127" value="" style="curved=1;endArrow=classic;html=1;rounded=0;entryX=0.627;entryY=1.016;entryDx=0;entryDy=0;entryPerimeter=0;exitX=1;exitY=1;exitDx=0;exitDy=0;" parent="1b-rbjV8sATuq4G54EdM-104" source="1b-rbjV8sATuq4G54EdM-106" target="1b-rbjV8sATuq4G54EdM-113" edge="1">
          <mxGeometry width="50" height="50" relative="1" as="geometry">
            <mxPoint x="240" y="320" as="sourcePoint" />
            <mxPoint x="290" y="270" as="targetPoint" />
            <Array as="points">
              <mxPoint x="240" y="270" />
            </Array>
          </mxGeometry>
        </mxCell>
        <mxCell id="1b-rbjV8sATuq4G54EdM-128" value="" style="curved=1;endArrow=classic;html=1;rounded=0;entryX=0.5;entryY=1;entryDx=0;entryDy=0;" parent="1b-rbjV8sATuq4G54EdM-104" target="1b-rbjV8sATuq4G54EdM-112" edge="1">
          <mxGeometry width="50" height="50" relative="1" as="geometry">
            <mxPoint x="120" y="160" as="sourcePoint" />
            <mxPoint x="190.15999999999985" y="120" as="targetPoint" />
            <Array as="points">
              <mxPoint x="110" y="150" />
              <mxPoint x="260" y="300" />
            </Array>
          </mxGeometry>
        </mxCell>
        <mxCell id="1b-rbjV8sATuq4G54EdM-129" value="" style="shape=note;whiteSpace=wrap;html=1;backgroundOutline=1;darkOpacity=0.05;fillStyle=hatch;direction=west;gradientDirection=north;shadow=1;size=20;pointerEvents=1;" parent="1" vertex="1">
          <mxGeometry x="104.72" y="880" width="700" height="560" as="geometry" />
        </mxCell>
        <mxCell id="1b-rbjV8sATuq4G54EdM-130" style="edgeStyle=orthogonalEdgeStyle;rounded=0;orthogonalLoop=1;jettySize=auto;html=1;exitX=0.5;exitY=1;exitDx=0;exitDy=0;entryX=0.485;entryY=1.007;entryDx=0;entryDy=0;entryPerimeter=0;" parent="1" source="1b-rbjV8sATuq4G54EdM-104" target="1b-rbjV8sATuq4G54EdM-129" edge="1">
          <mxGeometry relative="1" as="geometry" />
        </mxCell>
        <mxCell id="1b-rbjV8sATuq4G54EdM-131" value="logo" style="text;html=1;align=left;verticalAlign=middle;whiteSpace=wrap;rounded=0;fontSize=19;spacingLeft=11;fillColor=#dae8fc;strokeColor=#6c8ebf;" parent="1" vertex="1">
          <mxGeometry x="121" y="900" width="120" height="30" as="geometry" />
        </mxCell>
        <mxCell id="1b-rbjV8sATuq4G54EdM-132" value="Search" style="text;html=1;align=left;verticalAlign=middle;whiteSpace=wrap;rounded=0;fontSize=19;spacingLeft=11;fillColor=#6d8764;strokeColor=#3A5431;fontColor=#ffffff;" parent="1" vertex="1">
          <mxGeometry x="620" y="900" width="120" height="30" as="geometry" />
        </mxCell>
        <mxCell id="1b-rbjV8sATuq4G54EdM-133" value="Favorites" style="text;html=1;align=left;verticalAlign=middle;whiteSpace=wrap;rounded=0;fontSize=19;spacingLeft=11;fillColor=#6d8764;strokeColor=#3A5431;fontColor=#ffffff;" parent="1" vertex="1">
          <mxGeometry x="405" y="900" width="120" height="30" as="geometry" />
        </mxCell>
        <mxCell id="1b-rbjV8sATuq4G54EdM-135" value="&lt;font style=&quot;font-size: 32px;&quot;&gt;Featured Movie&lt;/font&gt;" style="rounded=0;whiteSpace=wrap;html=1;fillColor=#fa6800;fontColor=#000000;strokeColor=#C73500;" parent="1" vertex="1">
          <mxGeometry x="120" y="960" width="660" height="210" as="geometry" />
        </mxCell>
        <mxCell id="1b-rbjV8sATuq4G54EdM-136" value="&lt;span style=&quot;font-size: 18px;&quot;&gt;Movie Card&lt;/span&gt;" style="whiteSpace=wrap;html=1;aspect=fixed;fillColor=#647687;fontColor=#ffffff;strokeColor=#314354;" parent="1" vertex="1">
          <mxGeometry x="320" y="1250" width="130" height="130" as="geometry" />
        </mxCell>
        <mxCell id="1b-rbjV8sATuq4G54EdM-137" value="&lt;span style=&quot;font-size: 18px;&quot;&gt;Movie Card&lt;/span&gt;" style="whiteSpace=wrap;html=1;aspect=fixed;fillColor=#647687;fontColor=#ffffff;strokeColor=#314354;" parent="1" vertex="1">
          <mxGeometry x="490" y="1250" width="130" height="130" as="geometry" />
        </mxCell>
        <mxCell id="1b-rbjV8sATuq4G54EdM-138" value="&lt;font style=&quot;font-size: 18px;&quot;&gt;Movie Card&lt;/font&gt;" style="whiteSpace=wrap;html=1;aspect=fixed;fillColor=#647687;fontColor=#ffffff;strokeColor=#314354;" parent="1" vertex="1">
          <mxGeometry x="155.28" y="1250" width="130" height="130" as="geometry" />
        </mxCell>
        <mxCell id="1b-rbjV8sATuq4G54EdM-139" value="&lt;font style=&quot;font-size: 15px;&quot;&gt;Filter&lt;/font&gt;" style="rounded=1;whiteSpace=wrap;html=1;fillColor=#76608a;fontColor=#ffffff;strokeColor=#432D57;" parent="1" vertex="1">
          <mxGeometry x="660" y="1190" width="120" height="40" as="geometry" />
        </mxCell>
        <mxCell id="CDZBrPM5I4XblVGl2qVO-3" value="Home" style="text;html=1;align=left;verticalAlign=middle;whiteSpace=wrap;rounded=0;fontSize=19;spacingLeft=11;fillColor=#6d8764;strokeColor=#3A5431;fontColor=#ffffff;" vertex="1" parent="1">
          <mxGeometry x="260" y="900" width="120" height="30" as="geometry" />
        </mxCell>
        <mxCell id="CDZBrPM5I4XblVGl2qVO-8" value="" style="rounded=0;whiteSpace=wrap;html=1;" vertex="1" parent="1">
          <mxGeometry x="900" y="440" width="350" height="690" as="geometry" />
        </mxCell>
        <mxCell id="CDZBrPM5I4XblVGl2qVO-9" value="&lt;font style=&quot;font-size: 21px;&quot;&gt;Web&lt;/font&gt;" style="text;html=1;align=center;verticalAlign=middle;resizable=0;points=[];autosize=1;fillColor=#D1D1D1;" vertex="1" parent="1">
          <mxGeometry x="490" y="835" width="70" height="40" as="geometry" />
        </mxCell>
        <mxCell id="CDZBrPM5I4XblVGl2qVO-10" value="&lt;font style=&quot;font-size: 21px;&quot;&gt;Mobile&lt;/font&gt;" style="text;html=1;align=center;verticalAlign=middle;resizable=0;points=[];autosize=1;fillColor=#D1D1D1;" vertex="1" parent="1">
          <mxGeometry x="794.72" y="620" width="90" height="40" as="geometry" />
        </mxCell>
        <mxCell id="CDZBrPM5I4XblVGl2qVO-12" value="&lt;font style=&quot;font-size: 16px;&quot;&gt;logo&lt;/font&gt;" style="text;html=1;align=left;verticalAlign=middle;whiteSpace=wrap;rounded=0;fontSize=19;spacingLeft=11;fillColor=#dae8fc;strokeColor=#6c8ebf;" vertex="1" parent="1">
          <mxGeometry x="910" y="470" width="70" height="30" as="geometry" />
        </mxCell>
        <mxCell id="CDZBrPM5I4XblVGl2qVO-13" value="&lt;font style=&quot;font-size: 16px;&quot;&gt;Home&lt;/font&gt;" style="text;html=1;align=left;verticalAlign=middle;whiteSpace=wrap;rounded=0;fontSize=19;spacingLeft=11;fillColor=#6d8764;strokeColor=#3A5431;fontColor=#ffffff;" vertex="1" parent="1">
          <mxGeometry x="990" y="470" width="70" height="30" as="geometry" />
        </mxCell>
        <mxCell id="CDZBrPM5I4XblVGl2qVO-15" value="&lt;font style=&quot;font-size: 15px;&quot;&gt;Fav&lt;/font&gt;" style="text;html=1;align=left;verticalAlign=middle;whiteSpace=wrap;rounded=0;fontSize=19;spacingLeft=11;fillColor=#6d8764;strokeColor=#3A5431;fontColor=#ffffff;" vertex="1" parent="1">
          <mxGeometry x="1080" y="470" width="50" height="30" as="geometry" />
        </mxCell>
        <mxCell id="CDZBrPM5I4XblVGl2qVO-16" value="&lt;font style=&quot;font-size: 13px;&quot;&gt;Search&lt;/font&gt;" style="text;html=1;align=left;verticalAlign=middle;whiteSpace=wrap;rounded=0;fontSize=19;spacingLeft=11;fillColor=#6d8764;strokeColor=#3A5431;fontColor=#ffffff;" vertex="1" parent="1">
          <mxGeometry x="1170" y="470" width="70" height="30" as="geometry" />
        </mxCell>
        <mxCell id="CDZBrPM5I4XblVGl2qVO-17" value="&lt;font style=&quot;font-size: 32px;&quot;&gt;Featured Movie&lt;/font&gt;" style="rounded=0;whiteSpace=wrap;html=1;fillColor=#fa6800;fontColor=#000000;strokeColor=#C73500;" vertex="1" parent="1">
          <mxGeometry x="920" y="520" width="290" height="210" as="geometry" />
        </mxCell>
        <mxCell id="CDZBrPM5I4XblVGl2qVO-18" value="&lt;span style=&quot;font-size: 18px;&quot;&gt;Movie Card&lt;/span&gt;" style="whiteSpace=wrap;html=1;aspect=fixed;fillColor=#647687;fontColor=#ffffff;strokeColor=#314354;" vertex="1" parent="1">
          <mxGeometry x="637.5" y="1250" width="130" height="130" as="geometry" />
        </mxCell>
        <mxCell id="CDZBrPM5I4XblVGl2qVO-19" value="&lt;font style=&quot;font-size: 15px;&quot;&gt;Filter&lt;/font&gt;" style="rounded=1;whiteSpace=wrap;html=1;fillColor=#76608a;fontColor=#ffffff;strokeColor=#432D57;" vertex="1" parent="1">
          <mxGeometry x="940" y="750" width="120" height="40" as="geometry" />
        </mxCell>
        <mxCell id="CDZBrPM5I4XblVGl2qVO-25" value="" style="edgeStyle=orthogonalEdgeStyle;rounded=0;orthogonalLoop=1;jettySize=auto;html=1;" edge="1" parent="1">
          <mxGeometry relative="1" as="geometry">
            <mxPoint x="1010" y="865" as="sourcePoint" />
            <mxPoint x="990" y="865" as="targetPoint" />
          </mxGeometry>
        </mxCell>
        <mxCell id="CDZBrPM5I4XblVGl2qVO-29" value="&lt;h1&gt;Movie Card&lt;/h1&gt;" style="rounded=0;whiteSpace=wrap;html=1;fillColor=#dae8fc;strokeColor=#6c8ebf;" vertex="1" parent="1">
          <mxGeometry x="910" y="825" width="320" height="105" as="geometry" />
        </mxCell>
        <mxCell id="CDZBrPM5I4XblVGl2qVO-30" value="&lt;h1&gt;Movie Card&lt;/h1&gt;" style="rounded=0;whiteSpace=wrap;html=1;fillColor=#dae8fc;strokeColor=#6c8ebf;" vertex="1" parent="1">
          <mxGeometry x="915" y="970" width="320" height="105" as="geometry" />
        </mxCell>
      </root>
    </mxGraphModel>
  </diagram>
</mxfile>
